<svg fill="#ff0032" xmlns="http://www.w3.org/2000/svg" viewBox="0 0 376.37305 68.0166"><title>Asset 1</title><path d="M0,1.11182H47.80811V11.39746H11.9541v18.626H33.731V40.30957H11.9541v26.5957H0Z"/><path d="M84.60059,50.04H61.52686L55.9668,66.90527H43.64209L66.80859,1.11182H79.31885l23.1665,65.79345H90.16064ZM73.01709,12.50977s-1.48242,6.48632-2.77979,10.19335L64.39941,40.30957H81.63525L75.79736,22.70312c-1.20459-3.707-2.59472-10.19335-2.59472-10.19335Z"/><path d="M136.82959,0c16.03125,0,24.27881,8.98877,24.27881,8.98877l-5.74561,8.896s-7.50586-6.9502-17.977-6.9502c-13.8999,0-22.05469,10.37891-22.05469,22.61035,0,12.50977,8.43262,23.53711,22.14747,23.53711,11.39794,0,19.08935-8.33984,19.08935-8.33984l6.30127,8.61816s-9.08154,10.65625-25.854,10.65625c-20.10889,0-34.00879-14.91894-34.00879-34.28613C103.00635,14.64062,117.4624,0,136.82959,0Z"/><path d="M189.51758,11.39746H167.92627V1.11182H223.063V11.39746H201.47168V66.90527h-11.9541Z"/><path d="M258.50049,0c16.03125,0,24.27881,8.98877,24.27881,8.98877l-5.74561,8.896s-7.50586-6.9502-17.977-6.9502c-13.8999,0-22.05469,10.37891-22.05469,22.61035,0,12.50977,8.43262,23.53711,22.14746,23.53711,11.398,0,19.08936-8.33984,19.08936-8.33984L284.54,57.36035S275.4585,68.0166,258.686,68.0166c-20.10889,0-34.00879-14.91894-34.00879-34.28613C224.67725,14.64062,239.1333,0,258.50049,0Z"/><path d="M328.27783,50.04H305.2041L299.644,66.90527h-12.3247l23.1665-65.79345h12.51025L346.1626,66.90527H333.83789ZM316.69434,12.50977s-1.48243,6.48632-2.77979,10.19335l-5.83789,17.60645H325.3125l-5.83789-17.60645c-1.20459-3.707-2.59473-10.19335-2.59473-10.19335Z"/><path d="M364.419,11.39746H342.82764V1.11182h33.54541V66.90527H364.419Z"/></svg>